<?xml version="1.0" encoding="UTF-8" standalone="no"?>
<!DOCTYPE svg PUBLIC "-//W3C//DTD SVG 1.1//EN"
 "http://www.w3.org/Graphics/SVG/1.1/DTD/svg11.dtd">
<!-- Generated by graphviz version 2.47.0 (20210316.0004)
 -->
<!-- Title: dependencies Pages: 1 -->
<svg width="2196pt" height="363pt"
 viewBox="0.00 0.00 2196.00 363.00" xmlns="http://www.w3.org/2000/svg" xmlns:xlink="http://www.w3.org/1999/xlink">
<g id="graph0" class="graph" transform="scale(1 1) rotate(0) translate(4 359)">
<title>dependencies</title>
<polygon fill="white" stroke="transparent" points="-4,4 -4,-359 2192,-359 2192,4 -4,4"/>
<text text-anchor="start" x="1073.01" y="-42.4" font-family="Times-12" font-weight="bold" font-size="14.00">Legend</text>
<polygon fill="#ffffb3" stroke="transparent" points="860,-10 860,-30 880,-30 880,-10 860,-10"/>
<text text-anchor="start" x="883.63" y="-15.4" font-family="Times-12" font-size="14.00"> &#160;Declarations</text>
<polygon fill="#8dd3c7" stroke="transparent" points="973,-10 973,-30 993,-30 993,-10 973,-10"/>
<text text-anchor="start" x="996.73" y="-15.4" font-family="Times-12" font-size="14.00"> &#160;Module</text>
<polygon fill="#80b1d3" stroke="transparent" points="1059,-10 1059,-30 1079,-30 1079,-10 1059,-10"/>
<text text-anchor="start" x="1082.78" y="-15.4" font-family="Times-12" font-size="14.00"> &#160;Bootstrap</text>
<polygon fill="#fdb462" stroke="transparent" points="1156,-10 1156,-30 1176,-30 1176,-10 1156,-10"/>
<text text-anchor="start" x="1179.67" y="-15.4" font-family="Times-12" font-size="14.00"> &#160;Providers</text>
<polygon fill="#fb8072" stroke="transparent" points="1252,-10 1252,-30 1272,-30 1272,-10 1252,-10"/>
<text text-anchor="start" x="1275.73" y="-15.4" font-family="Times-12" font-size="14.00"> &#160;Exports</text>
<g id="clust1" class="cluster">
<title>cluster_AppModule</title>
<polygon fill="none" stroke="black" stroke-dasharray="1,5" points="751,-146 751,-347 1259,-347 1259,-146 751,-146"/>
</g>
<g id="clust3" class="cluster">
<title>cluster_AppModule_imports</title>
<polygon fill="none" stroke="black" points="897,-154 897,-282 1251,-282 1251,-154 897,-154"/>
</g>
<g id="clust6" class="cluster">
<title>cluster_AppModule_providers</title>
<polygon fill="none" stroke="black" points="759,-230 759,-282 889,-282 889,-230 759,-230"/>
</g>
<g id="clust7" class="cluster">
<title>cluster_AuthModule</title>
<polygon fill="none" stroke="black" stroke-dasharray="1,5" points="8,-146 8,-214 743,-214 743,-146 8,-146"/>
</g>
<g id="clust10" class="cluster">
<title>cluster_AuthModule_exports</title>
<polygon fill="none" stroke="black" points="629,-154 629,-206 735,-206 735,-154 629,-154"/>
</g>
<g id="clust12" class="cluster">
<title>cluster_AuthModule_providers</title>
<polygon fill="none" stroke="black" points="16,-154 16,-206 621,-206 621,-154 16,-154"/>
</g>
<g id="clust19" class="cluster">
<title>cluster_UploaderModule</title>
<polygon fill="none" stroke="black" stroke-dasharray="1,5" points="985,-70 985,-138 1169,-138 1169,-70 985,-70"/>
</g>
<g id="clust24" class="cluster">
<title>cluster_UploaderModule_providers</title>
<polygon fill="none" stroke="black" points="993,-78 993,-130 1161,-130 1161,-78 993,-78"/>
</g>
<g id="clust25" class="cluster">
<title>cluster_UsersModule</title>
<polygon fill="none" stroke="black" stroke-dasharray="1,5" points="1267,-222 1267,-290 2180,-290 2180,-222 1267,-222"/>
</g>
<g id="clust28" class="cluster">
<title>cluster_UsersModule_exports</title>
<polygon fill="none" stroke="black" points="1784,-230 1784,-282 2172,-282 2172,-230 1784,-230"/>
</g>
<g id="clust30" class="cluster">
<title>cluster_UsersModule_providers</title>
<polygon fill="none" stroke="black" points="1275,-230 1275,-282 1776,-282 1776,-230 1275,-230"/>
</g>
<!-- AuthModule -->
<g id="node1" class="node">
<title>AuthModule</title>
<polygon fill="#8dd3c7" stroke="black" points="992.55,-274 989.55,-278 968.55,-278 965.55,-274 905.45,-274 905.45,-238 992.55,-238 992.55,-274"/>
<text text-anchor="middle" x="949" y="-251.8" font-family="Times,serif" font-size="14.00">AuthModule</text>
</g>
<!-- AppModule -->
<g id="node5" class="node">
<title>AppModule</title>
<polygon fill="#8dd3c7" stroke="black" points="1053.66,-339 1050.66,-343 1029.66,-343 1026.66,-339 970.34,-339 970.34,-303 1053.66,-303 1053.66,-339"/>
<text text-anchor="middle" x="1012" y="-316.8" font-family="Times,serif" font-size="14.00">AppModule</text>
</g>
<!-- AuthModule&#45;&gt;AppModule -->
<g id="edge1" class="edge">
<title>AuthModule&#45;&gt;AppModule</title>
<path fill="none" stroke="black" d="M981.47,-274.11C981.47,-274.11 981.47,-292.99 981.47,-292.99"/>
<polygon fill="black" stroke="black" points="977.97,-292.99 981.47,-302.99 984.97,-292.99 977.97,-292.99"/>
</g>
<!-- AuthService  -->
<g id="node7" class="node">
<title>AuthService </title>
<polygon fill="#fb8072" stroke="black" points="726.98,-198 637.02,-198 637.02,-162 726.98,-162 726.98,-198"/>
<text text-anchor="middle" x="682" y="-175.8" font-family="Times,serif" font-size="14.00">AuthService </text>
</g>
<!-- AuthModule&#45;&gt;AuthService  -->
<g id="edge7" class="edge">
<title>AuthModule&#45;&gt;AuthService </title>
<path fill="none" stroke="black" stroke-dasharray="5,2" d="M905.35,-256C898.11,-256 892.9,-256 892.9,-256 892.9,-256 892.9,-180 892.9,-180 892.9,-180 736.98,-180 736.98,-180"/>
<polygon fill="black" stroke="black" points="736.98,-176.5 726.98,-180 736.98,-183.5 736.98,-176.5"/>
</g>
<!-- EventsModule -->
<g id="node2" class="node">
<title>EventsModule</title>
<polygon fill="#8dd3c7" stroke="black" points="1002.65,-198 999.65,-202 978.65,-202 975.65,-198 905.35,-198 905.35,-162 1002.65,-162 1002.65,-198"/>
<text text-anchor="middle" x="954" y="-175.8" font-family="Times,serif" font-size="14.00">EventsModule</text>
</g>
<!-- EventsModule&#45;&gt;AppModule -->
<g id="edge2" class="edge">
<title>EventsModule&#45;&gt;AppModule</title>
<path fill="none" stroke="black" d="M997.8,-198.14C997.8,-198.14 997.8,-292.93 997.8,-292.93"/>
<polygon fill="black" stroke="black" points="994.3,-292.92 997.8,-302.93 1001.3,-292.93 994.3,-292.92"/>
</g>
<!-- UploaderModule -->
<g id="node3" class="node">
<title>UploaderModule</title>
<polygon fill="#8dd3c7" stroke="black" points="1132.64,-198 1129.64,-202 1108.64,-202 1105.64,-198 1021.36,-198 1021.36,-162 1132.64,-162 1132.64,-198"/>
<text text-anchor="middle" x="1077" y="-175.8" font-family="Times,serif" font-size="14.00">UploaderModule</text>
</g>
<!-- UploaderModule&#45;&gt;AppModule -->
<g id="edge3" class="edge">
<title>UploaderModule&#45;&gt;AppModule</title>
<path fill="none" stroke="black" d="M1037.5,-198.14C1037.5,-198.14 1037.5,-292.93 1037.5,-292.93"/>
<polygon fill="black" stroke="black" points="1034,-292.92 1037.5,-302.93 1041,-292.93 1034,-292.92"/>
</g>
<!-- UsersModule -->
<g id="node4" class="node">
<title>UsersModule</title>
<polygon fill="#8dd3c7" stroke="black" points="1242.92,-198 1239.92,-202 1218.92,-202 1215.92,-198 1151.08,-198 1151.08,-162 1242.92,-162 1242.92,-198"/>
<text text-anchor="middle" x="1197" y="-175.8" font-family="Times,serif" font-size="14.00">UsersModule</text>
</g>
<!-- UsersModule&#45;&gt;AuthModule -->
<g id="edge6" class="edge">
<title>UsersModule&#45;&gt;AuthModule</title>
<path fill="none" stroke="black" d="M1174.14,-198.03C1174.14,-218.77 1174.14,-250 1174.14,-250 1174.14,-250 1002.68,-250 1002.68,-250"/>
<polygon fill="black" stroke="black" points="1002.68,-246.5 992.68,-250 1002.68,-253.5 1002.68,-246.5"/>
</g>
<!-- UsersModule&#45;&gt;AppModule -->
<g id="edge4" class="edge">
<title>UsersModule&#45;&gt;AppModule</title>
<path fill="none" stroke="black" d="M1197,-198.14C1197,-236.23 1197,-321 1197,-321 1197,-321 1063.98,-321 1063.98,-321"/>
<polygon fill="black" stroke="black" points="1063.98,-317.5 1053.98,-321 1063.98,-324.5 1063.98,-317.5"/>
</g>
<!-- UserPetsService  -->
<g id="node13" class="node">
<title>UserPetsService </title>
<polygon fill="#fb8072" stroke="black" points="2052.74,-274 1941.26,-274 1941.26,-238 2052.74,-238 2052.74,-274"/>
<text text-anchor="middle" x="1997" y="-251.8" font-family="Times,serif" font-size="14.00">UserPetsService </text>
</g>
<!-- UsersModule&#45;&gt;UserPetsService  -->
<g id="edge13" class="edge">
<title>UsersModule&#45;&gt;UserPetsService </title>
<path fill="none" stroke="black" stroke-dasharray="5,2" d="M1242.88,-174C1412.87,-174 1997,-174 1997,-174 1997,-174 1997,-227.8 1997,-227.8"/>
<polygon fill="black" stroke="black" points="1993.5,-227.8 1997,-237.8 2000.5,-227.8 1993.5,-227.8"/>
</g>
<!-- UserProfilesService  -->
<g id="node14" class="node">
<title>UserProfilesService </title>
<polygon fill="#fb8072" stroke="black" points="1923.95,-274 1792.05,-274 1792.05,-238 1923.95,-238 1923.95,-274"/>
<text text-anchor="middle" x="1858" y="-251.8" font-family="Times,serif" font-size="14.00">UserProfilesService </text>
</g>
<!-- UsersModule&#45;&gt;UserProfilesService  -->
<g id="edge14" class="edge">
<title>UsersModule&#45;&gt;UserProfilesService </title>
<path fill="none" stroke="black" stroke-dasharray="5,2" d="M1242.96,-180C1392.86,-180 1858,-180 1858,-180 1858,-180 1858,-227.99 1858,-227.99"/>
<polygon fill="black" stroke="black" points="1854.5,-227.99 1858,-237.99 1861.5,-227.99 1854.5,-227.99"/>
</g>
<!-- UsersService  -->
<g id="node15" class="node">
<title>UsersService </title>
<polygon fill="#fb8072" stroke="black" points="2163.85,-274 2070.15,-274 2070.15,-238 2163.85,-238 2163.85,-274"/>
<text text-anchor="middle" x="2117" y="-251.8" font-family="Times,serif" font-size="14.00">UsersService </text>
</g>
<!-- UsersModule&#45;&gt;UsersService  -->
<g id="edge15" class="edge">
<title>UsersModule&#45;&gt;UsersService </title>
<path fill="none" stroke="black" stroke-dasharray="5,2" d="M1242.94,-168C1429.04,-168 2117,-168 2117,-168 2117,-168 2117,-227.77 2117,-227.77"/>
<polygon fill="black" stroke="black" points="2113.5,-227.77 2117,-237.77 2120.5,-227.77 2113.5,-227.77"/>
</g>
<!-- AppService -->
<g id="node6" class="node">
<title>AppService</title>
<ellipse fill="#fdb462" stroke="black" cx="824" cy="-256" rx="56.74" ry="18"/>
<text text-anchor="middle" x="824" y="-251.8" font-family="Times,serif" font-size="14.00">AppService</text>
</g>
<!-- AppService&#45;&gt;AppModule -->
<g id="edge5" class="edge">
<title>AppService&#45;&gt;AppModule</title>
<path fill="none" stroke="black" d="M824,-274.11C824,-293.34 824,-321 824,-321 824,-321 960.28,-321 960.28,-321"/>
<polygon fill="black" stroke="black" points="960.28,-324.5 970.28,-321 960.28,-317.5 960.28,-324.5"/>
</g>
<!-- AuthService -->
<g id="node8" class="node">
<title>AuthService</title>
<ellipse fill="#fdb462" stroke="black" cx="554" cy="-180" rx="59.11" ry="18"/>
<text text-anchor="middle" x="554" y="-175.8" font-family="Times,serif" font-size="14.00">AuthService</text>
</g>
<!-- AuthService&#45;&gt;AuthModule -->
<g id="edge8" class="edge">
<title>AuthService&#45;&gt;AuthModule</title>
<path fill="none" stroke="black" d="M554,-198.06C554,-202.49 554,-206 554,-206 554,-206 975.26,-206 975.26,-206 975.26,-206 975.26,-227.95 975.26,-227.95"/>
<polygon fill="black" stroke="black" points="971.76,-227.95 975.26,-237.95 978.76,-227.95 971.76,-227.95"/>
</g>
<!-- JwtRefreshStrategy -->
<g id="node9" class="node">
<title>JwtRefreshStrategy</title>
<ellipse fill="#fdb462" stroke="black" cx="390" cy="-180" rx="86.81" ry="18"/>
<text text-anchor="middle" x="390" y="-175.8" font-family="Times,serif" font-size="14.00">JwtRefreshStrategy</text>
</g>
<!-- JwtRefreshStrategy&#45;&gt;AuthModule -->
<g id="edge9" class="edge">
<title>JwtRefreshStrategy&#45;&gt;AuthModule</title>
<path fill="none" stroke="black" d="M390,-198.19C390,-206.28 390,-214 390,-214 390,-214 957.75,-214 957.75,-214 957.75,-214 957.75,-227.94 957.75,-227.94"/>
<polygon fill="black" stroke="black" points="954.25,-227.94 957.75,-237.94 961.25,-227.94 954.25,-227.94"/>
</g>
<!-- JwtStrategy -->
<g id="node10" class="node">
<title>JwtStrategy</title>
<ellipse fill="#fdb462" stroke="black" cx="229" cy="-180" rx="56.76" ry="18"/>
<text text-anchor="middle" x="229" y="-175.8" font-family="Times,serif" font-size="14.00">JwtStrategy</text>
</g>
<!-- JwtStrategy&#45;&gt;AuthModule -->
<g id="edge10" class="edge">
<title>JwtStrategy&#45;&gt;AuthModule</title>
<path fill="none" stroke="black" d="M229,-198.06C229,-209.44 229,-222 229,-222 229,-222 940.25,-222 940.25,-222 940.25,-222 940.25,-227.81 940.25,-227.81"/>
<polygon fill="black" stroke="black" points="936.75,-227.81 940.25,-237.81 943.75,-227.81 936.75,-227.81"/>
</g>
<!-- LocalStrategy -->
<g id="node11" class="node">
<title>LocalStrategy</title>
<ellipse fill="#fdb462" stroke="black" cx="89" cy="-180" rx="65.41" ry="18"/>
<text text-anchor="middle" x="89" y="-175.8" font-family="Times,serif" font-size="14.00">LocalStrategy</text>
</g>
<!-- LocalStrategy&#45;&gt;AuthModule -->
<g id="edge11" class="edge">
<title>LocalStrategy&#45;&gt;AuthModule</title>
<path fill="none" stroke="black" d="M89,-198.05C89,-212.37 89,-230 89,-230 89,-230 922.74,-230 922.74,-230 922.74,-230 922.74,-230.79 922.74,-230.79"/>
<polygon fill="black" stroke="black" points="919.24,-227.94 922.74,-237.94 926.24,-227.94 919.24,-227.94"/>
</g>
<!-- UploaderService -->
<g id="node12" class="node">
<title>UploaderService</title>
<ellipse fill="#fdb462" stroke="black" cx="1077" cy="-104" rx="75.84" ry="18"/>
<text text-anchor="middle" x="1077" y="-99.8" font-family="Times,serif" font-size="14.00">UploaderService</text>
</g>
<!-- UploaderService&#45;&gt;UploaderModule -->
<g id="edge12" class="edge">
<title>UploaderService&#45;&gt;UploaderModule</title>
<path fill="none" stroke="black" d="M1077,-122.01C1077,-122.01 1077,-151.85 1077,-151.85"/>
<polygon fill="black" stroke="black" points="1073.5,-151.85 1077,-161.85 1080.5,-151.85 1073.5,-151.85"/>
</g>
<!-- UserPetsService -->
<g id="node16" class="node">
<title>UserPetsService</title>
<ellipse fill="#fdb462" stroke="black" cx="1552" cy="-256" rx="74.13" ry="18"/>
<text text-anchor="middle" x="1552" y="-251.8" font-family="Times,serif" font-size="14.00">UserPetsService</text>
</g>
<!-- UserPetsService&#45;&gt;UsersModule -->
<g id="edge16" class="edge">
<title>UserPetsService&#45;&gt;UsersModule</title>
<path fill="none" stroke="black" d="M1552,-237.83C1552,-218.91 1552,-192 1552,-192 1552,-192 1253.05,-192 1253.05,-192"/>
<polygon fill="black" stroke="black" points="1253.05,-188.5 1243.05,-192 1253.05,-195.5 1253.05,-188.5"/>
</g>
<!-- UserProfilesService -->
<g id="node17" class="node">
<title>UserProfilesService</title>
<ellipse fill="#fdb462" stroke="black" cx="1371" cy="-256" rx="88.01" ry="18"/>
<text text-anchor="middle" x="1371" y="-251.8" font-family="Times,serif" font-size="14.00">UserProfilesService</text>
</g>
<!-- UserProfilesService&#45;&gt;UsersModule -->
<g id="edge17" class="edge">
<title>UserProfilesService&#45;&gt;UsersModule</title>
<path fill="none" stroke="black" d="M1287.47,-262C1252.51,-262 1219.86,-262 1219.86,-262 1219.86,-262 1219.86,-208.2 1219.86,-208.2"/>
<polygon fill="black" stroke="black" points="1223.36,-208.2 1219.86,-198.2 1216.36,-208.2 1223.36,-208.2"/>
</g>
<!-- UsersService -->
<g id="node18" class="node">
<title>UsersService</title>
<ellipse fill="#fdb462" stroke="black" cx="1706" cy="-256" rx="61.95" ry="18"/>
<text text-anchor="middle" x="1706" y="-251.8" font-family="Times,serif" font-size="14.00">UsersService</text>
</g>
<!-- UsersService&#45;&gt;UsersModule -->
<g id="edge18" class="edge">
<title>UsersService&#45;&gt;UsersModule</title>
<path fill="none" stroke="black" d="M1706,-237.97C1706,-217.23 1706,-186 1706,-186 1706,-186 1253.07,-186 1253.07,-186"/>
<polygon fill="black" stroke="black" points="1253.07,-182.5 1243.07,-186 1253.07,-189.5 1253.07,-182.5"/>
</g>
</g>
</svg>
