<?xml version="1.0" encoding="UTF-8" standalone="no"?>
<!DOCTYPE svg PUBLIC "-//W3C//DTD SVG 1.1//EN"
 "http://www.w3.org/Graphics/SVG/1.1/DTD/svg11.dtd">
<!-- Generated by graphviz version 2.47.0 (20210316.0004)
 -->
<!-- Title: dependencies Pages: 1 -->
<svg width="541pt" height="284pt"
 viewBox="0.00 0.00 541.00 284.00" xmlns="http://www.w3.org/2000/svg" xmlns:xlink="http://www.w3.org/1999/xlink">
<g id="graph0" class="graph" transform="scale(1 1) rotate(0) translate(4 280)">
<title>dependencies</title>
<polygon fill="white" stroke="transparent" points="-4,4 -4,-280 537,-280 537,4 -4,4"/>
<text text-anchor="start" x="245.51" y="-42.4" font-family="Times-12" font-weight="bold" font-size="14.00">Legend</text>
<polygon fill="#ffffb3" stroke="transparent" points="32.5,-10 32.5,-30 52.5,-30 52.5,-10 32.5,-10"/>
<text text-anchor="start" x="56.13" y="-15.4" font-family="Times-12" font-size="14.00"> &#160;Declarations</text>
<polygon fill="#8dd3c7" stroke="transparent" points="145.5,-10 145.5,-30 165.5,-30 165.5,-10 145.5,-10"/>
<text text-anchor="start" x="169.23" y="-15.4" font-family="Times-12" font-size="14.00"> &#160;Module</text>
<polygon fill="#80b1d3" stroke="transparent" points="231.5,-10 231.5,-30 251.5,-30 251.5,-10 231.5,-10"/>
<text text-anchor="start" x="255.28" y="-15.4" font-family="Times-12" font-size="14.00"> &#160;Bootstrap</text>
<polygon fill="#fdb462" stroke="transparent" points="328.5,-10 328.5,-30 348.5,-30 348.5,-10 328.5,-10"/>
<text text-anchor="start" x="352.17" y="-15.4" font-family="Times-12" font-size="14.00"> &#160;Providers</text>
<polygon fill="#fb8072" stroke="transparent" points="424.5,-10 424.5,-30 444.5,-30 444.5,-10 424.5,-10"/>
<text text-anchor="start" x="448.23" y="-15.4" font-family="Times-12" font-size="14.00"> &#160;Exports</text>
<g id="clust1" class="cluster">
<title>cluster_UsersModule</title>
<polygon fill="none" stroke="black" stroke-dasharray="1,5" points="8,-70 8,-268 525,-268 525,-70 8,-70"/>
</g>
<g id="clust4" class="cluster">
<title>cluster_UsersModule_exports</title>
<polygon fill="none" stroke="black" points="69,-208 69,-260 457,-260 457,-208 69,-208"/>
</g>
<g id="clust6" class="cluster">
<title>cluster_UsersModule_providers</title>
<polygon fill="none" stroke="black" points="16,-78 16,-130 517,-130 517,-78 16,-78"/>
</g>
<!-- UserPetsService  -->
<g id="node1" class="node">
<title>UserPetsService </title>
<polygon fill="#fb8072" stroke="black" points="448.74,-252 337.26,-252 337.26,-216 448.74,-216 448.74,-252"/>
<text text-anchor="middle" x="393" y="-229.8" font-family="Times,serif" font-size="14.00">UserPetsService </text>
</g>
<!-- UserProfilesService  -->
<g id="node2" class="node">
<title>UserProfilesService </title>
<polygon fill="#fb8072" stroke="black" points="319.95,-252 188.05,-252 188.05,-216 319.95,-216 319.95,-252"/>
<text text-anchor="middle" x="254" y="-229.8" font-family="Times,serif" font-size="14.00">UserProfilesService </text>
</g>
<!-- UsersService  -->
<g id="node3" class="node">
<title>UsersService </title>
<polygon fill="#fb8072" stroke="black" points="170.85,-252 77.15,-252 77.15,-216 170.85,-216 170.85,-252"/>
<text text-anchor="middle" x="124" y="-229.8" font-family="Times,serif" font-size="14.00">UsersService </text>
</g>
<!-- UsersModule -->
<g id="node4" class="node">
<title>UsersModule</title>
<polygon fill="#8dd3c7" stroke="black" points="299.92,-187 296.92,-191 275.92,-191 272.92,-187 208.08,-187 208.08,-151 299.92,-151 299.92,-187"/>
<text text-anchor="middle" x="254" y="-164.8" font-family="Times,serif" font-size="14.00">UsersModule</text>
</g>
<!-- UsersModule&#45;&gt;UserPetsService  -->
<g id="edge1" class="edge">
<title>UsersModule&#45;&gt;UserPetsService </title>
<path fill="none" stroke="black" stroke-dasharray="5,2" d="M299.88,-175C325.16,-175 351.47,-175 351.47,-175 351.47,-175 351.47,-205.98 351.47,-205.98"/>
<polygon fill="black" stroke="black" points="347.97,-205.98 351.47,-215.98 354.97,-205.98 347.97,-205.98"/>
</g>
<!-- UsersModule&#45;&gt;UserProfilesService  -->
<g id="edge2" class="edge">
<title>UsersModule&#45;&gt;UserProfilesService </title>
<path fill="none" stroke="black" stroke-dasharray="5,2" d="M254,-187.11C254,-187.11 254,-205.99 254,-205.99"/>
<polygon fill="black" stroke="black" points="250.5,-205.99 254,-215.99 257.5,-205.99 250.5,-205.99"/>
</g>
<!-- UsersModule&#45;&gt;UsersService  -->
<g id="edge3" class="edge">
<title>UsersModule&#45;&gt;UsersService </title>
<path fill="none" stroke="black" stroke-dasharray="5,2" d="M208.27,-175C183.08,-175 156.86,-175 156.86,-175 156.86,-175 156.86,-205.98 156.86,-205.98"/>
<polygon fill="black" stroke="black" points="153.36,-205.98 156.86,-215.98 160.36,-205.98 153.36,-205.98"/>
</g>
<!-- UserPetsService -->
<g id="node5" class="node">
<title>UserPetsService</title>
<ellipse fill="#fdb462" stroke="black" cx="435" cy="-104" rx="74.13" ry="18"/>
<text text-anchor="middle" x="435" y="-99.8" font-family="Times,serif" font-size="14.00">UserPetsService</text>
</g>
<!-- UserPetsService&#45;&gt;UsersModule -->
<g id="edge4" class="edge">
<title>UserPetsService&#45;&gt;UsersModule</title>
<path fill="none" stroke="black" d="M404.65,-120.43C404.65,-137.89 404.65,-163 404.65,-163 404.65,-163 310.02,-163 310.02,-163"/>
<polygon fill="black" stroke="black" points="310.02,-159.5 300.02,-163 310.02,-166.5 310.02,-159.5"/>
</g>
<!-- UserProfilesService -->
<g id="node6" class="node">
<title>UserProfilesService</title>
<ellipse fill="#fdb462" stroke="black" cx="254" cy="-104" rx="88.01" ry="18"/>
<text text-anchor="middle" x="254" y="-99.8" font-family="Times,serif" font-size="14.00">UserProfilesService</text>
</g>
<!-- UserProfilesService&#45;&gt;UsersModule -->
<g id="edge5" class="edge">
<title>UserProfilesService&#45;&gt;UsersModule</title>
<path fill="none" stroke="black" d="M254,-122.11C254,-122.11 254,-140.99 254,-140.99"/>
<polygon fill="black" stroke="black" points="250.5,-140.99 254,-150.99 257.5,-140.99 250.5,-140.99"/>
</g>
<!-- UsersService -->
<g id="node7" class="node">
<title>UsersService</title>
<ellipse fill="#fdb462" stroke="black" cx="86" cy="-104" rx="61.95" ry="18"/>
<text text-anchor="middle" x="86" y="-99.8" font-family="Times,serif" font-size="14.00">UsersService</text>
</g>
<!-- UsersService&#45;&gt;UsersModule -->
<g id="edge6" class="edge">
<title>UsersService&#45;&gt;UsersModule</title>
<path fill="none" stroke="black" d="M112.65,-120.43C112.65,-137.89 112.65,-163 112.65,-163 112.65,-163 198.11,-163 198.11,-163"/>
<polygon fill="black" stroke="black" points="198.11,-166.5 208.11,-163 198.11,-159.5 198.11,-166.5"/>
</g>
</g>
</svg>
